<svg xmlns="http://www.w3.org/2000/svg" viewBox="0 0 448 512"><!--!Font Awesome Pro 6.7.2 by @fontawesome - https://fontawesome.com License - https://fontawesome.com/license (Commercial License) Copyright 2025 Fonticons, Inc.--><path fill="#ffffff" d="M224 32c106 0 192 28.8 192 64v32c0 35.3-86 64-192 64S32 163.3 32 128V96c0-35.3 86-64 192-64m192 149.5V224c0 35.3-86 64-192 64S32 259.3 32 224v-42.5c41.3 29 116.8 42.5 192 42.5s150.7-13.5 192-42.5m0 96V320c0 35.3-86 64-192 64S32 355.3 32 320v-42.5c41.3 29 116.8 42.5 192 42.5s150.7-13.5 192-42.5m0 96V416c0 35.3-86 64-192 64S32 451.3 32 416v-42.5c41.3 29 116.8 42.5 192 42.5s150.7-13.5 192-42.5M224 0C145.9 0 0 18.8 0 96v320c0 77.3 146.1 96 224 96 78.1 0 224-18.8 224-96V96c0-77.3-146.1-96-224-96z"/></svg>